<svg preserveAspectRatio="none" width="100%" height="100%" overflow="visible" style="display: block;" viewBox="0 0 17 21" fill="none" xmlns="http://www.w3.org/2000/svg">
<path id="icon" d="M0.5 17.5V15.5H2.5V8.5C2.5 7.11667 2.91667 5.89167 3.75 4.825C4.58333 3.74167 5.66667 3.03333 7 2.7V2C7 1.58333 7.14167 1.23333 7.425 0.949999C7.725 0.65 8.08333 0.5 8.5 0.5C8.91667 0.5 9.26667 0.65 9.55 0.949999C9.85 1.23333 10 1.58333 10 2V2.7C11.3333 3.03333 12.4167 3.74167 13.25 4.825C14.0833 5.89167 14.5 7.11667 14.5 8.5V15.5H16.5V17.5H0.5ZM8.5 20.5C7.95 20.5 7.475 20.3083 7.075 19.925C6.69167 19.525 6.5 19.05 6.5 18.5H10.5C10.5 19.05 10.3 19.525 9.9 19.925C9.51667 20.3083 9.05 20.5 8.5 20.5ZM4.5 15.5H12.5V8.5C12.5 7.4 12.1083 6.45833 11.325 5.675C10.5417 4.89167 9.6 4.5 8.5 4.5C7.4 4.5 6.45833 4.89167 5.675 5.675C4.89167 6.45833 4.5 7.4 4.5 8.5V15.5Z" fill="var(--fill-0, #F5EFE8)" stroke="var(--stroke-0, #F5EFE8)"/>
</svg>
