<svg preserveAspectRatio="none" width="100%" height="100%" overflow="visible" style="display: block;" viewBox="0 0 16.9878 14.6875" fill="none" xmlns="http://www.w3.org/2000/svg">
<g id="Container">
<path id="Icon" d="M3.48857 14.6875C3.14071 14.6875 2.8315 14.5812 2.56094 14.3686C2.29038 14.156 2.10357 13.8823 2.0005 13.5473L0.0292813 6.39679C-0.0351376 6.152 0.00673471 5.92653 0.154898 5.72039C0.303061 5.51425 0.505981 5.41118 0.763656 5.41118H4.43553L7.83685 0.347862C7.90127 0.244792 7.99145 0.161047 8.10741 0.0966283C8.22336 0.0322094 8.34576 0 8.47459 0C8.60343 0 8.72583 0.0322094 8.84178 0.0966283C8.95773 0.161047 9.04792 0.244792 9.11234 0.347862L12.5137 5.41118H16.2242C16.4819 5.41118 16.6848 5.51425 16.8329 5.72039C16.9811 5.92653 17.023 6.152 16.9586 6.39679L14.9873 13.5473C14.8843 13.8823 14.6975 14.156 14.4269 14.3686C14.1563 14.5812 13.8471 14.6875 13.4993 14.6875H3.48857ZM3.46925 13.1414H13.5186L15.2192 6.95724H1.76859L3.46925 13.1414ZM8.49392 11.5954C8.91908 11.5954 9.28305 11.444 9.58582 11.1412C9.88859 10.8385 10.04 10.4745 10.04 10.0493C10.04 9.62418 9.88859 9.26021 9.58582 8.95744C9.28305 8.65467 8.91908 8.50329 8.49392 8.50329C8.06875 8.50329 7.70479 8.65467 7.40202 8.95744C7.09925 9.26021 6.94787 9.62418 6.94787 10.0493C6.94787 10.4745 7.09925 10.8385 7.40202 11.1412C7.70479 11.444 8.06875 11.5954 8.49392 11.5954ZM6.31012 5.41118H10.6584L8.47459 2.16447L6.31012 5.41118Z" fill="var(--fill-0, #8F4D34)"/>
</g>
</svg>
