<svg preserveAspectRatio="none" width="100%" height="100%" overflow="visible" style="display: block;" viewBox="0 0 49 49" fill="none" xmlns="http://www.w3.org/2000/svg">
<g id="Icon">
<path d="M24.5 30.5C27.8137 30.5 30.5 27.8137 30.5 24.5C30.5 21.1863 27.8137 18.5 24.5 18.5C21.1863 18.5 18.5 21.1863 18.5 24.5C18.5 27.8137 21.1863 30.5 24.5 30.5Z" stroke="var(--stroke-0, #1E1E1E)" stroke-width="5" stroke-linecap="round" stroke-linejoin="round"/>
<path d="M39.3 30.5C39.0338 31.1032 38.9544 31.7724 39.072 32.4212C39.1896 33.07 39.4989 33.6686 39.96 34.14L40.08 34.26C40.4519 34.6315 40.7469 35.0726 40.9482 35.5582C41.1495 36.0438 41.2531 36.5643 41.2531 37.09C41.2531 37.6157 41.1495 38.1362 40.9482 38.6218C40.7469 39.1074 40.4519 39.5485 40.08 39.92C39.7085 40.2919 39.2674 40.5869 38.7818 40.7882C38.2962 40.9895 37.7757 41.0931 37.25 41.0931C36.7243 41.0931 36.2038 40.9895 35.7182 40.7882C35.2326 40.5869 34.7915 40.2919 34.42 39.92L34.3 39.8C33.8286 39.3389 33.23 39.0296 32.5812 38.912C31.9324 38.7944 31.2632 38.8738 30.66 39.14C30.0685 39.3935 29.564 39.8145 29.2086 40.3511C28.8533 40.8877 28.6626 41.5164 28.66 42.16V42.5C28.66 43.5609 28.2386 44.5783 27.4884 45.3284C26.7383 46.0786 25.7209 46.5 24.66 46.5C23.5991 46.5 22.5817 46.0786 21.8316 45.3284C21.0814 44.5783 20.66 43.5609 20.66 42.5V42.32C20.6445 41.658 20.4302 41.016 20.045 40.4774C19.6598 39.9388 19.1215 39.5286 18.5 39.3C17.8968 39.0338 17.2276 38.9544 16.5788 39.072C15.93 39.1896 15.3314 39.4989 14.86 39.96L14.74 40.08C14.3685 40.4519 13.9274 40.7469 13.4418 40.9482C12.9562 41.1495 12.4357 41.2531 11.91 41.2531C11.3843 41.2531 10.8638 41.1495 10.3782 40.9482C9.89265 40.7469 9.45149 40.4519 9.08 40.08C8.70809 39.7085 8.41306 39.2674 8.21176 38.7818C8.01046 38.2962 7.90685 37.7757 7.90685 37.25C7.90685 36.7243 8.01046 36.2038 8.21176 35.7182C8.41306 35.2326 8.70809 34.7915 9.08 34.42L9.2 34.3C9.66107 33.8286 9.97037 33.23 10.088 32.5812C10.2056 31.9324 10.1262 31.2632 9.86 30.66C9.60647 30.0685 9.18551 29.564 8.64893 29.2086C8.11235 28.8533 7.48357 28.6626 6.84 28.66H6.5C5.43913 28.66 4.42172 28.2386 3.67157 27.4884C2.92143 26.7383 2.5 25.7209 2.5 24.66C2.5 23.5991 2.92143 22.5817 3.67157 21.8316C4.42172 21.0814 5.43913 20.66 6.5 20.66H6.68C7.34199 20.6445 7.98401 20.4302 8.5226 20.045C9.06119 19.6598 9.47143 19.1215 9.7 18.5C9.96623 17.8968 10.0456 17.2276 9.92801 16.5788C9.81037 15.93 9.50107 15.3314 9.04 14.86L8.92 14.74C8.54809 14.3685 8.25306 13.9274 8.05176 13.4418C7.85046 12.9562 7.74685 12.4357 7.74685 11.91C7.74685 11.3843 7.85046 10.8638 8.05176 10.3782C8.25306 9.89265 8.54809 9.45149 8.92 9.08C9.29149 8.70809 9.73265 8.41306 10.2182 8.21176C10.7038 8.01046 11.2243 7.90685 11.75 7.90685C12.2757 7.90685 12.7962 8.01046 13.2818 8.21176C13.7674 8.41306 14.2085 8.70809 14.58 9.08L14.7 9.2C15.1714 9.66107 15.77 9.97037 16.4188 10.088C17.0676 10.2056 17.7368 10.1262 18.34 9.86H18.5C19.0915 9.60647 19.596 9.18551 19.9514 8.64893C20.3067 8.11235 20.4974 7.48357 20.5 6.84V6.5C20.5 5.43913 20.9214 4.42172 21.6716 3.67157C22.4217 2.92143 23.4391 2.5 24.5 2.5C25.5609 2.5 26.5783 2.92143 27.3284 3.67157C28.0786 4.42172 28.5 5.43913 28.5 6.5V6.68C28.5026 7.32357 28.6933 7.95235 29.0486 8.48893C29.404 9.02551 29.9085 9.44647 30.5 9.7C31.1032 9.96623 31.7724 10.0456 32.4212 9.92801C33.07 9.81037 33.6686 9.50107 34.14 9.04L34.26 8.92C34.6315 8.54809 35.0726 8.25306 35.5582 8.05176C36.0438 7.85046 36.5643 7.74685 37.09 7.74685C37.6157 7.74685 38.1362 7.85046 38.6218 8.05176C39.1074 8.25306 39.5485 8.54809 39.92 8.92C40.2919 9.29149 40.5869 9.73265 40.7882 10.2182C40.9895 10.7038 41.0931 11.2243 41.0931 11.75C41.0931 12.2757 40.9895 12.7962 40.7882 13.2818C40.5869 13.7674 40.2919 14.2085 39.92 14.58L39.8 14.7C39.3389 15.1714 39.0296 15.77 38.912 16.4188C38.7944 17.0676 38.8738 17.7368 39.14 18.34V18.5C39.3935 19.0915 39.8145 19.596 40.3511 19.9514C40.8877 20.3067 41.5164 20.4974 42.16 20.5H42.5C43.5609 20.5 44.5783 20.9214 45.3284 21.6716C46.0786 22.4217 46.5 23.4391 46.5 24.5C46.5 25.5609 46.0786 26.5783 45.3284 27.3284C44.5783 28.0786 43.5609 28.5 42.5 28.5H42.32C41.6764 28.5026 41.0477 28.6933 40.5111 29.0486C39.9745 29.404 39.5535 29.9085 39.3 30.5Z" stroke="var(--stroke-0, #1E1E1E)" stroke-width="5" stroke-linecap="round" stroke-linejoin="round"/>
</g>
</svg>
