<svg preserveAspectRatio="none" width="100%" height="100%" overflow="visible" style="display: block;" viewBox="0 0 57.2528 63.0182" fill="none" xmlns="http://www.w3.org/2000/svg">
<g id="Group 2">
<path id="Vector 9" d="M25.5857 60.4228C23.7055 58.865 17.9478 53.3553 15.5079 45.4171C17.1042 41.3776 20.9569 39.2073 25.6367 39.3865C30.3165 39.5656 33.2664 41.6398 34.8959 44.3766C37.6182 48.9487 27.3741 58.9461 25.5857 60.4228Z" fill="var(--fill-0, #C5A26E)" stroke="var(--stroke-0, #795928)" stroke-width="4"/>
<path id="Vector 10" d="M11.8629 51.9623C10.569 49.8917 6.83961 42.8489 7.0241 34.5463C9.81143 31.2151 14.1516 30.3687 18.5368 32.0127C22.922 33.6567 25.0685 36.5544 25.7531 39.6651C26.8968 44.8619 14.0254 51.124 11.8629 51.9623Z" fill="var(--fill-0, #C5A26E)" stroke="var(--stroke-0, #795928)" stroke-width="4"/>
<path id="Vector 12" d="M4.03668 41.2907C3.16868 39.0085 0.875197 31.3764 2.66554 23.267C6.0457 20.5393 10.4676 20.5503 14.451 23.0131C18.4343 25.4759 19.9784 28.7347 20.0471 31.9191C20.1618 37.2391 6.32065 40.8875 4.03668 41.2907Z" fill="var(--fill-0, #C5A26E)" stroke="var(--stroke-0, #795928)" stroke-width="4"/>
<path id="Vector 13" d="M4.03668 41.2907C3.16868 39.0085 0.875197 31.3764 2.66554 23.267C6.0457 20.5393 10.4676 20.5503 14.451 23.0131C18.4343 25.4759 19.9784 28.7347 20.0471 31.9191C20.1618 37.2391 6.32065 40.8875 4.03668 41.2907Z" fill="var(--fill-0, #C5A26E)" stroke="var(--stroke-0, #795928)" stroke-width="4"/>
<path id="Vector 11" d="M40.9935 53.3334C38.7272 52.4247 31.5614 48.9377 26.8127 42.1246C27.0984 37.7906 30.1037 34.5469 34.6144 33.2876C39.1252 32.0283 42.5678 33.1019 44.9555 35.2099C48.9446 38.7316 42.2452 51.3809 40.9935 53.3334Z" fill="var(--fill-0, #C5A26E)" stroke="var(--stroke-0, #795928)" stroke-width="4"/>
<path id="Vector 14" d="M49.9393 42.2564C47.517 41.949 39.7031 40.3833 33.3887 34.9891C32.5714 30.7233 34.6608 26.8262 38.7077 24.4692C42.7547 22.1123 46.3568 22.2824 49.1993 23.7196C53.948 26.1206 50.6577 40.0511 49.9393 42.2564Z" fill="var(--fill-0, #C5A26E)" stroke="var(--stroke-0, #795928)" stroke-width="4"/>
<path id="Vector 15" d="M26.0788 43.5241C24.1518 42.0247 18.2278 36.694 15.5458 28.8343C17.0175 24.7478 20.8019 22.4605 25.485 22.4961C30.1681 22.5317 33.1802 24.5145 34.8928 27.2C37.7539 31.6866 27.8211 41.9932 26.0788 43.5241Z" fill="var(--fill-0, #C5A26E)" stroke="var(--stroke-0, #795928)" stroke-width="4"/>
<path id="Vector 16" d="M7.28401 28.9472C6.16296 26.7781 3.01934 19.4551 3.87914 11.195C6.92841 8.10189 11.323 7.61164 15.5598 9.60715C19.7967 11.6027 21.7001 14.6655 22.1292 17.8216C22.846 23.0943 9.50756 28.2877 7.28401 28.9472Z" fill="var(--fill-0, #C5A26E)" stroke="var(--stroke-0, #795928)" stroke-width="4"/>
<path id="Vector 17" d="M42.6768 29.4363C40.4351 28.4686 33.3629 24.7954 28.7941 17.8604C29.1931 13.5353 32.2822 10.3714 36.8244 9.23051C41.3665 8.08961 44.7798 9.25295 47.1116 11.4227C51.0072 15.0475 43.9792 27.5172 42.6768 29.4363Z" fill="var(--fill-0, #C5A26E)" stroke="var(--stroke-0, #795928)" stroke-width="4"/>
<path id="Vector 18" d="M27.0468 25.6723C25.0626 24.2494 18.935 19.1543 15.9479 11.4054C17.2588 7.26453 20.9509 4.83107 25.6318 4.68367C30.3127 4.53628 33.4 6.39985 35.2162 9.01638C38.2505 13.3877 28.728 24.0746 27.0468 25.6723Z" fill="var(--fill-0, #C5A26E)" stroke="var(--stroke-0, #795928)" stroke-width="4"/>
</g>
</svg>
