<svg preserveAspectRatio="none" width="100%" height="100%" overflow="visible" style="display: block;" viewBox="0 0 56.712 54" fill="none" xmlns="http://www.w3.org/2000/svg">
<g id="Group 1">
<path id="Vector 2" d="M0 16.8906C6.97736 27.3728 19.3805 38.1993 24.3703 44.8151C21.4623 34.5913 6.78232 17.3211 0 16.8906Z" fill="var(--fill-0, #008046)"/>
<path id="Vector 3" d="M56.712 14.0513C47.48 25.7488 30.9621 37.1569 24.3479 44.4638C28.1156 32.5493 47.6047 13.6896 56.712 14.0513Z" fill="var(--fill-0, #008046)"/>
<path id="Vector 6" d="M45.0621 8.71742C39.5963 21.2751 28.4212 35.6007 24.3479 43.6794C25.5316 32.4477 37.9253 10.9274 45.0621 8.71742Z" fill="var(--fill-0, #008046)"/>
<path id="Vector 4" d="M41.753 0C37.9676 15.6586 27.6201 35.2417 24.505 45.5092C23.3688 32.7939 33.5503 4.90556 41.753 0Z" fill="var(--fill-0, #008046)"/>
<path id="Vector 8" d="M37.2819 18.0602C34.4503 27.2501 26.6812 39.0859 24.3478 45.1504C23.4763 37.945 31.11 21.3677 37.2819 18.0602Z" fill="var(--fill-0, #008046)"/>
<path id="Vector 5" d="M9.73919 3.44033C13.4149 18.3811 21.6451 36.1914 24.465 45.8895C24.2052 33.101 15.4324 7.02728 9.73919 3.44033Z" fill="var(--fill-0, #008046)"/>
<path id="Vector 7" d="M15.2945 3.00996C16.9837 17.4368 22.6502 35.3586 24.1586 44.8048C25.4523 32.9991 20.2662 7.37864 15.2945 3.00996Z" fill="var(--fill-0, #008046)"/>
</g>
</svg>
